<?xml version="1.0" encoding="UTF-8"?>
<svg xmlns="http://www.w3.org/2000/svg" xmlns:xlink="http://www.w3.org/1999/xlink" width="43px" height="20px" viewBox="0 0 20 20" version="1.1">
<g id="surface1">
<path style=" stroke:none;fill-rule:nonzero;fill:rgb(33.72549%,23.921569%,48.627451%);fill-opacity:1;" d="M 0 17.421875 C 0 18.84375 1.15625 20 2.578125 20 L 17.421875 20 C 18.84375 20 20 18.84375 20 17.421875 L 20 2.578125 C 20 1.15625 18.84375 0 17.421875 0 L 2.578125 0 C 1.15625 0 0 1.15625 0 2.578125 Z M 0 17.421875 "/>
<path style=" stroke:none;fill-rule:nonzero;fill:rgb(100%,100%,100%);fill-opacity:1;" d="M 8.292969 8.847656 L 8.292969 6.015625 L 10.785156 6.015625 C 11.023438 6.015625 11.253906 6.035156 11.472656 6.074219 C 11.695312 6.113281 11.890625 6.183594 12.058594 6.285156 C 12.226562 6.386719 12.363281 6.527344 12.464844 6.710938 C 12.566406 6.890625 12.617188 7.121094 12.617188 7.40625 C 12.617188 7.914062 12.464844 8.28125 12.160156 8.507812 C 11.855469 8.734375 11.464844 8.847656 10.988281 8.847656 Z M 5.628906 3.945312 L 5.628906 16.054688 L 11.5 16.054688 C 12.042969 16.054688 12.570312 15.988281 13.085938 15.851562 C 13.597656 15.714844 14.058594 15.507812 14.457031 15.222656 C 14.859375 14.941406 15.179688 14.578125 15.417969 14.128906 C 15.652344 13.683594 15.773438 13.15625 15.773438 12.542969 C 15.773438 11.785156 15.589844 11.140625 15.222656 10.601562 C 14.855469 10.066406 14.296875 9.6875 13.550781 9.472656 C 14.09375 9.214844 14.503906 8.878906 14.78125 8.472656 C 15.058594 8.066406 15.195312 7.558594 15.195312 6.945312 C 15.195312 6.382812 15.101562 5.90625 14.917969 5.523438 C 14.730469 5.136719 14.46875 4.828125 14.128906 4.597656 C 13.789062 4.367188 13.382812 4.199219 12.90625 4.097656 C 12.433594 3.996094 11.90625 3.945312 11.328125 3.945312 Z M 8.292969 13.984375 L 8.292969 10.660156 L 11.195312 10.660156 C 11.769531 10.660156 12.234375 10.792969 12.585938 11.058594 C 12.933594 11.324219 13.109375 11.769531 13.109375 12.390625 C 13.109375 12.707031 13.054688 12.96875 12.949219 13.171875 C 12.839844 13.375 12.699219 13.535156 12.515625 13.65625 C 12.335938 13.773438 12.125 13.859375 11.890625 13.910156 C 11.652344 13.960938 11.402344 13.984375 11.144531 13.984375 Z M 8.292969 13.984375 "/>
</g>
</svg>
