<?xml version="1.0" encoding="UTF-8"?>
<svg xmlns="http://www.w3.org/2000/svg" xmlns:xlink="http://www.w3.org/1999/xlink" width="43px" height="200px" viewBox="0 0 43 48" version="1.1">
<g id="surface1">
<path style=" stroke:none;fill-rule:nonzero;fill:rgb(36.078431%,55.294118%,73.72549%);fill-opacity:1;" d="M 42.925781 14.117188 C 42.925781 13.3125 42.753906 12.601562 42.402344 11.992188 C 42.058594 11.390625 41.542969 10.886719 40.851562 10.492188 C 35.132812 7.222656 29.414062 3.960938 23.699219 0.6875 C 22.160156 -0.191406 20.667969 -0.160156 19.136719 0.734375 C 16.863281 2.066406 5.472656 8.539062 2.082031 10.488281 C 0.683594 11.292969 0.00390625 12.519531 0.00390625 14.117188 C 0 20.691406 0.00390625 27.265625 0 33.84375 C 0 34.628906 0.167969 35.328125 0.5 35.929688 C 0.847656 36.546875 1.371094 37.0625 2.078125 37.472656 C 5.472656 39.421875 16.863281 45.894531 19.136719 47.226562 C 20.667969 48.121094 22.160156 48.152344 23.699219 47.269531 C 29.414062 43.996094 35.136719 40.738281 40.851562 37.46875 C 41.558594 37.0625 42.082031 36.542969 42.429688 35.925781 C 42.761719 35.324219 42.929688 34.628906 42.929688 33.839844 C 42.929688 33.839844 42.929688 20.695312 42.925781 14.117188 "/>
<path style=" stroke:none;fill-rule:nonzero;fill:rgb(10.196078%,27.45098%,45.490196%);fill-opacity:1;" d="M 21.53125 23.914062 L 0.5 35.929688 C 0.847656 36.546875 1.371094 37.0625 2.078125 37.472656 C 5.472656 39.421875 16.863281 45.894531 19.136719 47.226562 C 20.667969 48.121094 22.160156 48.152344 23.699219 47.269531 C 29.414062 43.996094 35.136719 40.738281 40.851562 37.46875 C 41.558594 37.0625 42.082031 36.542969 42.429688 35.925781 L 21.53125 23.914062 "/>
<path style=" stroke:none;fill-rule:nonzero;fill:rgb(10.196078%,27.45098%,45.490196%);fill-opacity:1;" d="M 15.300781 27.472656 C 16.527344 29.59375 18.824219 31.023438 21.464844 31.023438 C 24.121094 31.023438 26.433594 29.574219 27.652344 27.433594 L 21.53125 23.914062 L 15.300781 27.472656 "/>
<path style=" stroke:none;fill-rule:nonzero;fill:rgb(10.588235%,34.901961%,55.686275%);fill-opacity:1;" d="M 42.925781 14.117188 C 42.925781 13.3125 42.753906 12.601562 42.402344 11.992188 L 21.53125 23.914062 L 42.429688 35.925781 C 42.761719 35.324219 42.929688 34.628906 42.929688 33.839844 C 42.929688 33.839844 42.929688 20.695312 42.925781 14.117188 "/>
<path style=" stroke:none;fill-rule:nonzero;fill:rgb(100%,100%,100%);fill-opacity:1;" d="M 41.777344 24.773438 L 40.144531 24.773438 L 40.144531 26.394531 L 38.511719 26.394531 L 38.511719 24.773438 L 36.878906 24.773438 L 36.878906 23.15625 L 38.511719 23.15625 L 38.511719 21.535156 L 40.144531 21.535156 L 40.144531 23.15625 L 41.777344 23.15625 L 41.777344 24.773438 M 35.820312 24.773438 L 34.1875 24.773438 L 34.1875 26.394531 L 32.554688 26.394531 L 32.554688 24.773438 L 30.921875 24.773438 L 30.921875 23.15625 L 32.554688 23.15625 L 32.554688 21.535156 L 34.1875 21.535156 L 34.1875 23.15625 L 35.820312 23.15625 L 35.820312 24.773438 "/>
<path style=" stroke:none;fill-rule:nonzero;fill:rgb(100%,100%,100%);fill-opacity:1;" d="M 27.652344 27.433594 C 26.433594 29.574219 24.121094 31.023438 21.464844 31.023438 C 18.824219 31.023438 16.527344 29.59375 15.300781 27.472656 C 14.6875 26.410156 14.363281 25.207031 14.367188 23.980469 C 14.367188 20.089844 17.542969 16.9375 21.464844 16.9375 C 24.085938 16.9375 26.375 18.347656 27.605469 20.445312 L 33.808594 16.902344 C 31.34375 12.675781 26.738281 9.835938 21.464844 9.835938 C 13.589844 9.835938 7.207031 16.167969 7.207031 23.980469 C 7.207031 26.542969 7.894531 28.945312 9.097656 31.019531 C 11.558594 35.265625 16.175781 38.125 21.464844 38.125 C 26.765625 38.125 31.390625 35.253906 33.847656 30.996094 L 27.652344 27.433594 "/>
</g>
</svg>
