<?xml version="1.0" encoding="UTF-8"?>
<svg xmlns="http://www.w3.org/2000/svg" xmlns:xlink="http://www.w3.org/1999/xlink" width="43px" height="200px" viewBox="0 0 43 50" version="1.1">
<g id="surface1">
<path style=" stroke:none;fill-rule:nonzero;fill:rgb(0%,26.666667%,50.980392%);fill-opacity:1;" d="M 42.390625 15.480469 C 42.410156 14.761719 42.234375 14.054688 41.882812 13.425781 C 41.519531 12.820312 40.996094 12.316406 40.371094 11.976562 C 34.804688 8.820312 29.238281 5.667969 23.671875 2.519531 C 22.171875 1.664062 20.71875 1.695312 19.226562 2.5625 C 17.011719 3.839844 5.921875 10.09375 2.617188 11.976562 C 1.257812 12.75 0.597656 13.9375 0.597656 15.476562 L 0.597656 34.523438 C 0.582031 35.222656 0.75 35.917969 1.085938 36.535156 C 1.449219 37.164062 1.980469 37.675781 2.625 38.023438 C 5.929688 39.914062 17.019531 46.15625 19.234375 47.441406 C 20.726562 48.308594 22.179688 48.339844 23.679688 47.484375 C 29.242188 44.328125 34.808594 41.171875 40.378906 38.023438 C 41.023438 37.675781 41.554688 37.160156 41.917969 36.535156 C 42.253906 35.914062 42.421875 35.222656 42.40625 34.519531 L 42.40625 15.480469 Z M 42.390625 15.480469 "/>
<path style=" stroke:none;fill-rule:nonzero;fill:rgb(0%,34.901961%,61.176471%);fill-opacity:1;" d="M 42.394531 34.523438 C 42.410156 35.222656 42.242188 35.917969 41.90625 36.535156 C 41.824219 36.683594 41.730469 36.824219 41.628906 36.960938 L 21.496094 25 L 40.371094 11.976562 C 40.996094 12.316406 41.519531 12.820312 41.882812 13.425781 C 42.230469 14.054688 42.410156 14.761719 42.390625 15.480469 C 42.394531 21.828125 42.394531 34.523438 42.394531 34.523438 Z M 42.394531 34.523438 "/>
<path style=" stroke:none;fill-rule:nonzero;fill:rgb(39.607843%,60.392157%,82.352941%);fill-opacity:1;" d="M 41.882812 13.425781 L 1.082031 36.535156 C 0.746094 35.917969 0.578125 35.222656 0.59375 34.523438 L 0.59375 15.476562 C 0.59375 13.9375 1.257812 12.75 2.617188 11.976562 C 5.921875 10.09375 17.011719 3.839844 19.230469 2.558594 C 20.714844 1.691406 22.171875 1.660156 23.671875 2.515625 C 29.234375 5.671875 34.800781 8.828125 40.371094 11.976562 C 40.996094 12.316406 41.519531 12.820312 41.882812 13.425781 Z M 41.882812 13.425781 "/>
<path style=" stroke:none;fill-rule:nonzero;fill:rgb(100%,100%,100%);fill-opacity:1;" d="M 22.300781 32.691406 C 19.503906 32.695312 16.925781 31.203125 15.574219 28.796875 C 15.503906 28.675781 15.441406 28.554688 15.382812 28.433594 C 13.6875 24.992188 14.875 20.851562 18.152344 18.789062 C 21.425781 16.730469 25.753906 17.398438 28.222656 20.351562 C 28.324219 20.472656 28.414062 20.601562 28.515625 20.730469 C 28.5625 20.792969 28.609375 20.855469 28.652344 20.917969 L 35.394531 17.101562 C 35.230469 16.84375 35.058594 16.589844 34.878906 16.347656 C 34.785156 16.21875 34.6875 16.09375 34.59375 15.96875 C 29.734375 9.769531 20.863281 8.242188 14.152344 12.457031 C 7.441406 16.671875 5.121094 25.226562 8.808594 32.164062 C 8.871094 32.285156 8.941406 32.402344 9 32.523438 C 11.65625 37.128906 16.574219 40.03125 21.957031 40.171875 C 27.34375 40.3125 32.410156 37.667969 35.308594 33.207031 L 28.714844 29.289062 C 27.300781 31.414062 24.886719 32.695312 22.300781 32.691406 Z M 22.300781 32.691406 "/>
</g>
</svg>
