<?xml version="1.0" encoding="UTF-8"?>
<svg xmlns="http://www.w3.org/2000/svg" xmlns:xlink="http://www.w3.org/1999/xlink" width="43px" height="200px" viewBox="0 0 43 49" version="1.1">
<g id="surface1">
<path style=" stroke:none;fill-rule:nonzero;fill:rgb(10.588235%,45.098039%,72.941176%);fill-opacity:1;" d="M 3.601562 43.867188 L 0 0.0820312 L 43 0.171875 L 39.191406 43.867188 L 21.664062 48.917969 Z M 3.601562 43.867188 "/>
<path style=" stroke:none;fill-rule:nonzero;fill:rgb(10.980392%,53.333333%,78.039216%);fill-opacity:1;" d="M 21.664062 44.6875 L 21.664062 4.253906 L 39.371094 4.3125 L 36.210938 40.488281 Z M 21.664062 44.6875 "/>
<path style=" stroke:none;fill-rule:nonzero;fill:rgb(100%,100%,100%);fill-opacity:1;" d="M 34.972656 9.421875 L 7.730469 9.421875 L 8.46875 14.707031 L 21.398438 14.707031 L 8.675781 20.140625 L 9.414062 25.25 L 28.15625 25.25 L 27.476562 32.382812 L 21.132812 33.617188 L 15.375 32.148438 L 14.933594 28.097656 L 9.652344 28.097656 L 10.359375 36.527344 L 21.691406 39.667969 L 32.550781 36.230469 L 33.941406 19.757812 L 22.457031 19.757812 L 34.972656 14.589844 Z M 34.972656 9.421875 "/>
</g>
</svg>
