<?xml version="1.0" encoding="UTF-8"?>
<svg xmlns="http://www.w3.org/2000/svg" xmlns:xlink="http://www.w3.org/1999/xlink" width="43px" height="20px" viewBox="0 0 20 20" version="1.1">
<g id="surface1">
<path style=" stroke:none;fill-rule:nonzero;fill:rgb(0%,0%,0%);fill-opacity:1;" d="M 4.234375 0 L 5.136719 0 L 5.136719 0.890625 L 5.960938 0.890625 L 5.960938 0 L 6.859375 0 L 6.859375 2.695312 L 5.960938 2.695312 L 5.960938 1.792969 L 5.136719 1.792969 L 5.136719 2.695312 L 4.234375 2.695312 Z M 4.234375 0 "/>
<path style=" stroke:none;fill-rule:nonzero;fill:rgb(0%,0%,0%);fill-opacity:1;" d="M 8.046875 0.894531 L 7.253906 0.894531 L 7.253906 0 L 9.742188 0 L 9.742188 0.894531 L 8.949219 0.894531 L 8.949219 2.695312 L 8.046875 2.695312 Z M 8.046875 0.894531 "/>
<path style=" stroke:none;fill-rule:nonzero;fill:rgb(0%,0%,0%);fill-opacity:1;" d="M 10.136719 0 L 11.078125 0 L 11.65625 0.949219 L 12.234375 0 L 13.171875 0 L 13.171875 2.695312 L 12.277344 2.695312 L 12.277344 1.359375 L 11.65625 2.320312 L 11.640625 2.320312 L 11.019531 1.359375 L 11.019531 2.695312 L 10.136719 2.695312 Z M 10.136719 0 "/>
<path style=" stroke:none;fill-rule:nonzero;fill:rgb(0%,0%,0%);fill-opacity:1;" d="M 13.621094 0 L 14.523438 0 L 14.523438 1.804688 L 15.792969 1.804688 L 15.792969 2.695312 L 13.621094 2.695312 Z M 13.621094 0 "/>
<path style=" stroke:none;fill-rule:nonzero;fill:rgb(89.019608%,30.588235%,14.901961%);fill-opacity:1;" d="M 4.183594 18.386719 L 2.890625 3.878906 L 17.097656 3.878906 L 15.800781 18.390625 L 9.992188 20 Z M 4.183594 18.386719 "/>
<path style=" stroke:none;fill-rule:nonzero;fill:rgb(93.72549%,40%,16.470588%);fill-opacity:1;" d="M 9.996094 5.066406 L 9.996094 18.765625 L 14.695312 17.464844 L 15.800781 5.066406 Z M 9.996094 5.066406 "/>
<path style=" stroke:none;fill-rule:nonzero;fill:rgb(100%,100%,100%);fill-opacity:1;" d="M 5.539062 6.84375 L 6.015625 12.226562 L 12.183594 12.226562 L 11.976562 14.535156 L 9.992188 15.070312 L 8.011719 14.535156 L 7.878906 13.050781 L 6.089844 13.050781 L 6.347656 15.910156 L 9.992188 16.921875 L 13.640625 15.910156 L 14.128906 10.445312 L 7.644531 10.445312 L 7.480469 8.625 L 14.292969 8.625 L 14.453125 6.84375 Z M 5.539062 6.84375 "/>
<path style=" stroke:none;fill-rule:nonzero;fill:rgb(92.156863%,92.156863%,92.156863%);fill-opacity:1;" d="M 9.996094 6.84375 L 5.539062 6.84375 L 6.015625 12.226562 L 9.996094 12.226562 L 9.996094 10.445312 L 7.644531 10.445312 L 7.480469 8.625 L 9.996094 8.625 Z M 9.996094 6.84375 "/>
<path style=" stroke:none;fill-rule:nonzero;fill:rgb(92.156863%,92.156863%,92.156863%);fill-opacity:1;" d="M 9.996094 15.070312 L 9.992188 15.070312 L 8.011719 14.535156 L 7.878906 13.050781 L 6.089844 13.050781 L 6.347656 15.910156 L 9.992188 16.921875 L 9.996094 16.921875 Z M 9.996094 15.070312 "/>
</g>
</svg>
