<?xml version="1.0" encoding="UTF-8"?>
<svg xmlns="http://www.w3.org/2000/svg" xmlns:xlink="http://www.w3.org/1999/xlink" width="43px" height="200px" viewBox="0 0 43 43" version="1.1">
<g id="surface1">
<rect x="0" y="0" width="43" height="43" style="fill:rgb(100%,100%,100%);fill-opacity:1;stroke:none;"/>
<path style=" stroke:none;fill-rule:evenodd;fill:rgb(19.215686%,45.490196%,72.54902%);fill-opacity:1;" d="M 17.929688 22.695312 C 17.929688 22.695312 16.902344 23.292969 18.660156 23.492188 C 20.792969 23.738281 21.882812 23.703125 24.230469 23.257812 C 24.230469 23.257812 24.847656 23.644531 25.710938 23.980469 C 20.445312 26.234375 13.792969 23.847656 17.929688 22.695312 Z M 17.285156 19.75 C 17.285156 19.75 16.132812 20.601562 17.894531 20.785156 C 20.171875 21.019531 21.96875 21.039062 25.078125 20.441406 C 25.078125 20.441406 25.507812 20.875 26.183594 21.113281 C 19.820312 22.976562 12.730469 21.261719 17.285156 19.75 Z M 17.285156 19.75 "/>
<path style=" stroke:none;fill-rule:evenodd;fill:rgb(79.215686%,19.215686%,19.607843%);fill-opacity:1;" d="M 22.707031 14.753906 C 24.007812 16.25 22.367188 17.59375 22.367188 17.59375 C 22.367188 17.59375 25.664062 15.894531 24.148438 13.761719 C 22.738281 11.777344 21.652344 10.792969 27.519531 7.390625 C 27.519531 7.390625 18.3125 9.6875 22.707031 14.753906 Z M 22.707031 14.753906 "/>
<path style=" stroke:none;fill-rule:evenodd;fill:rgb(19.215686%,45.490196%,72.54902%);fill-opacity:1;" d="M 29.671875 24.871094 C 29.671875 24.871094 30.433594 25.5 28.835938 25.984375 C 25.796875 26.902344 16.1875 27.179688 13.519531 26.019531 C 12.558594 25.601562 14.359375 25.023438 14.925781 24.902344 C 15.515625 24.773438 15.851562 24.796875 15.851562 24.796875 C 14.785156 24.046875 8.953125 26.273438 12.890625 26.910156 C 23.625 28.652344 32.457031 26.128906 29.671875 24.871094 Z M 18.421875 16.699219 C 18.421875 16.699219 13.535156 17.859375 16.691406 18.28125 C 18.027344 18.460938 20.683594 18.417969 23.160156 18.210938 C 25.179688 18.042969 27.210938 17.679688 27.210938 17.679688 C 27.210938 17.679688 26.5 17.984375 25.984375 18.335938 C 21.019531 19.640625 11.429688 19.035156 14.191406 17.699219 C 16.527344 16.570312 18.421875 16.699219 18.421875 16.699219 Z M 27.191406 21.597656 C 32.238281 18.976562 29.902344 16.457031 28.273438 16.796875 C 27.878906 16.882812 27.699219 16.953125 27.699219 16.953125 C 27.699219 16.953125 27.847656 16.722656 28.128906 16.621094 C 31.351562 15.488281 33.828125 19.960938 27.089844 21.730469 C 27.089844 21.730469 27.167969 21.660156 27.191406 21.597656 Z M 27.191406 21.597656 "/>
<path style=" stroke:none;fill-rule:evenodd;fill:rgb(79.215686%,19.215686%,19.607843%);fill-opacity:1;" d="M 24.148438 1.898438 C 24.148438 1.898438 26.945312 4.691406 21.5 8.988281 C 17.132812 12.4375 20.503906 14.402344 21.496094 16.648438 C 18.949219 14.351562 17.078125 12.328125 18.332031 10.441406 C 20.175781 7.679688 25.277344 6.335938 24.148438 1.898438 Z M 24.148438 1.898438 "/>
<path style=" stroke:none;fill-rule:evenodd;fill:rgb(19.215686%,45.490196%,72.54902%);fill-opacity:1;" d="M 18.917969 28.703125 C 23.761719 29.015625 31.199219 28.53125 31.375 26.242188 C 31.375 26.242188 31.039062 27.109375 27.375 27.796875 C 23.238281 28.578125 18.140625 28.484375 15.117188 27.988281 C 15.117188 27.988281 15.738281 28.5 18.917969 28.703125 Z M 18.917969 28.703125 "/>
<path style=" stroke:none;fill-rule:evenodd;fill:rgb(79.215686%,19.215686%,19.607843%);fill-opacity:1;" d="M 31.152344 32.8125 L 31.003906 32.8125 L 31.003906 32.730469 L 31.402344 32.730469 L 31.402344 32.8125 L 31.253906 32.8125 L 31.253906 33.226562 L 31.152344 33.226562 Z M 31.945312 32.835938 L 31.941406 32.835938 L 31.796875 33.226562 L 31.730469 33.226562 L 31.585938 32.835938 L 31.582031 32.835938 L 31.582031 33.226562 L 31.484375 33.226562 L 31.484375 32.730469 L 31.628906 32.730469 L 31.761719 33.082031 L 31.898438 32.730469 L 32.039062 32.730469 L 32.039062 33.226562 L 31.945312 33.226562 Z M 18.125 37.460938 C 17.667969 37.855469 17.1875 38.078125 16.753906 38.078125 C 16.136719 38.078125 15.800781 37.707031 15.800781 37.113281 C 15.800781 36.472656 16.160156 36 17.59375 36 L 18.125 36 Z M 19.386719 38.882812 L 19.386719 34.480469 C 19.386719 33.355469 18.746094 32.613281 17.199219 32.613281 C 16.296875 32.613281 15.503906 32.835938 14.863281 33.121094 L 15.046875 33.898438 C 15.554688 33.714844 16.207031 33.539062 16.851562 33.539062 C 17.742188 33.539062 18.125 33.898438 18.125 34.640625 L 18.125 35.199219 L 17.679688 35.199219 C 15.515625 35.199219 14.539062 36.039062 14.539062 37.300781 C 14.539062 38.386719 15.183594 39.007812 16.394531 39.007812 C 17.171875 39.007812 17.753906 38.683594 18.296875 38.214844 L 18.398438 38.882812 Z M 23.59375 38.882812 L 22.023438 38.882812 L 20.128906 32.722656 L 21.503906 32.722656 L 22.675781 36.507812 L 22.9375 37.644531 C 23.53125 36 23.953125 34.332031 24.160156 32.722656 L 25.496094 32.722656 C 25.140625 34.75 24.496094 36.976562 23.59375 38.882812 Z M 29.625 37.460938 C 29.167969 37.855469 28.683594 38.078125 28.25 38.078125 C 27.632812 38.078125 27.300781 37.707031 27.300781 37.113281 C 27.300781 36.472656 27.660156 36 29.09375 36 L 29.625 36 Z M 30.886719 38.882812 L 30.886719 34.480469 C 30.886719 33.355469 30.242188 32.613281 28.695312 32.613281 C 27.792969 32.613281 27.003906 32.835938 26.359375 33.121094 L 26.546875 33.898438 C 27.050781 33.714844 27.707031 33.539062 28.351562 33.539062 C 29.242188 33.539062 29.625 33.898438 29.625 34.640625 L 29.625 35.199219 L 29.179688 35.199219 C 27.015625 35.199219 26.039062 36.039062 26.039062 37.300781 C 26.039062 38.386719 26.679688 39.007812 27.894531 39.007812 C 28.671875 39.007812 29.253906 38.683594 29.796875 38.214844 L 29.898438 38.882812 Z M 13.15625 39.929688 C 12.796875 40.453125 12.21875 40.867188 11.582031 41.101562 L 10.960938 40.371094 C 11.445312 40.121094 11.859375 39.722656 12.050781 39.347656 C 12.21875 39.015625 12.289062 38.589844 12.289062 37.566406 L 12.289062 30.535156 L 13.625 30.535156 L 13.625 37.46875 C 13.625 38.835938 13.515625 39.390625 13.15625 39.929688 Z M 13.15625 39.929688 "/>
</g>
</svg>
