<?xml version="1.0" encoding="UTF-8"?>
<svg xmlns="http://www.w3.org/2000/svg" xmlns:xlink="http://www.w3.org/1999/xlink" width="43px" height="200px" viewBox="0 0 43 43" version="1.1">
<g id="surface1">
<rect x="0" y="0" width="43" height="43" style="fill:rgb(94.117647%,85.882353%,30.980392%);fill-opacity:1;stroke:none;"/>
<path style=" stroke:none;fill-rule:nonzero;fill:rgb(19.607843%,20%,18.823529%);fill-opacity:1;" d="M 39.480469 32.746094 C 39.164062 30.78125 37.886719 29.136719 34.097656 27.597656 C 32.78125 26.992188 31.3125 26.558594 30.875 25.5625 C 30.722656 24.984375 30.699219 24.65625 30.800781 24.304688 C 31.082031 23.164062 32.441406 22.808594 33.519531 23.136719 C 34.214844 23.367188 34.875 23.902344 35.269531 24.757812 C 37.125 23.554688 37.121094 23.5625 38.417969 22.738281 C 37.945312 22.003906 37.691406 21.664062 37.378906 21.347656 C 36.265625 20.101562 34.742188 19.460938 32.3125 19.507812 C 31.890625 19.5625 31.464844 19.621094 31.042969 19.671875 C 29.832031 19.980469 28.671875 20.617188 27.996094 21.472656 C 25.960938 23.78125 26.539062 27.824219 29.015625 29.488281 C 31.457031 31.316406 35.042969 31.734375 35.5 33.449219 C 35.945312 35.542969 33.957031 36.222656 31.984375 35.980469 C 30.527344 35.679688 29.71875 34.941406 28.84375 33.59375 C 27.234375 34.527344 27.234375 34.527344 25.578125 35.480469 C 25.972656 36.335938 26.382812 36.726562 27.042969 37.46875 C 30.15625 40.628906 37.953125 40.472656 39.351562 35.691406 C 39.40625 35.527344 39.785156 34.433594 39.480469 32.746094 Z M 23.375 19.761719 L 19.355469 19.761719 C 19.355469 23.238281 19.335938 26.6875 19.335938 30.160156 C 19.335938 32.371094 19.453125 34.398438 19.09375 35.019531 C 18.503906 36.242188 16.980469 36.09375 16.285156 35.855469 C 15.578125 35.507812 15.21875 35.011719 14.800781 34.3125 C 14.6875 34.113281 14.601562 33.957031 14.570312 33.945312 C 13.480469 34.613281 12.394531 35.28125 11.300781 35.949219 C 11.84375 37.066406 12.648438 38.035156 13.671875 38.664062 C 15.207031 39.582031 17.265625 39.863281 19.417969 39.371094 C 20.820312 38.960938 22.03125 38.117188 22.664062 36.828125 C 23.582031 35.140625 23.382812 33.097656 23.375 30.835938 C 23.398438 27.148438 23.375 23.460938 23.375 19.761719 Z M 23.375 19.761719 "/>
</g>
</svg>
