<?xml version="1.0" encoding="UTF-8"?>
<svg xmlns="http://www.w3.org/2000/svg" xmlns:xlink="http://www.w3.org/1999/xlink" width="43px" height="200px" viewBox="0 0 43 12" version="1.1">
<g id="surface1">
<path style=" stroke:none;fill-rule:nonzero;fill:rgb(41.960784%,62.745098%,67.058824%);fill-opacity:1;" d="M 12.289062 4.6875 L 11.945312 5.894531 Z M 14.054688 7.304688 L 13.675781 7.304688 Z M 13.957031 9.105469 L 11.691406 9.113281 Z M 14.433594 7.308594 L 14.054688 7.304688 Z M 14.15625 8.953125 L 14.550781 7.460938 Z M 22.503906 2.082031 L 21.769531 5.507812 Z M 20.613281 2.082031 L 20.054688 4.640625 L 20.613281 2.078125 Z M 20.613281 2.082031 "/>
<path style=" stroke:none;fill-rule:nonzero;fill:rgb(41.960784%,62.745098%,67.058824%);fill-opacity:1;" d="M 22.378906 1.925781 L 20.804688 1.925781 C 20.71875 1.925781 20.632812 1.996094 20.613281 2.078125 L 20.054688 4.640625 L 19.496094 7.199219 C 19.476562 7.285156 19.390625 7.355469 19.304688 7.355469 L 18.191406 7.355469 C 17.089844 7.355469 17.214844 6.597656 17.441406 5.566406 L 17.449219 5.535156 L 17.472656 5.402344 C 17.472656 5.394531 17.476562 5.386719 17.476562 5.378906 L 17.527344 5.113281 L 17.582031 4.828125 C 17.597656 4.742188 17.621094 4.617188 17.640625 4.539062 L 17.894531 3.308594 L 18.148438 2.082031 C 18.164062 1.996094 18.105469 1.925781 18.019531 1.925781 L 16.40625 1.925781 C 16.316406 1.925781 16.230469 1.996094 16.214844 2.082031 L 15.867188 3.710938 L 15.519531 5.34375 C 15.519531 5.34375 15.519531 5.347656 15.519531 5.347656 L 15.484375 5.5 C 15.085938 7.308594 15.191406 9.035156 17.367188 9.085938 C 17.402344 9.089844 17.429688 9.089844 17.429688 9.089844 L 20.839844 9.089844 C 20.925781 9.089844 21.015625 9.019531 21.03125 8.933594 L 21.769531 5.507812 L 22.503906 2.082031 C 22.523438 1.996094 22.464844 1.925781 22.378906 1.925781 Z M 28.652344 7.371094 C 28.742188 7.371094 28.796875 7.441406 28.78125 7.527344 L 28.628906 8.265625 M 28.476562 9.007812 L 28.628906 8.265625 Z M 28.285156 9.164062 C 27.820312 9.167969 26.429688 9.175781 25.386719 9.175781 C 26.65625 9.175781 28.285156 9.164062 28.285156 9.164062 Z M 24.445312 6.417969 C 24.445312 6.339844 24.539062 6.199219 24.625 6.199219 L 24.429688 6.195312 C 24.339844 7.078125 24.445312 6.417969 24.445312 6.417969 Z M 24.445312 6.417969 "/>
<path style=" stroke:none;fill-rule:nonzero;fill:rgb(41.960784%,62.745098%,67.058824%);fill-opacity:1;" d="M 25.527344 9.175781 C 25.519531 9.175781 25.507812 9.175781 25.496094 9.175781 C 25.507812 9.175781 25.519531 9.175781 25.527344 9.175781 Z M 28.652344 7.371094 C 28.742188 7.371094 28.796875 7.441406 28.78125 7.527344 L 28.628906 8.265625 L 28.601562 8.386719 M 26.273438 9.175781 L 26.265625 9.175781 Z M 25.886719 9.175781 L 25.863281 9.175781 Z M 25.769531 9.175781 C 25.757812 9.175781 25.742188 9.175781 25.730469 9.175781 C 25.742188 9.175781 25.757812 9.175781 25.769531 9.175781 Z M 25.648438 9.175781 L 25.617188 9.175781 Z M 25.863281 9.175781 L 25.769531 9.175781 Z M 26.265625 9.175781 Z M 28.285156 9.164062 C 27.945312 9.164062 27.109375 9.171875 26.273438 9.175781 C 27.105469 9.171875 27.945312 9.164062 28.285156 9.164062 Z M 28.476562 9.007812 L 28.601562 8.386719 Z M 25.730469 9.175781 L 25.648438 9.175781 Z M 25.496094 9.175781 L 25.386719 9.175781 Z M 25.617188 9.175781 L 25.527344 9.175781 Z M 2.605469 6.4375 L 2.847656 5.363281 L 2.570312 6.59375 L 2.300781 7.84375 L 2.535156 6.746094 C 2.554688 6.660156 2.585938 6.523438 2.605469 6.4375 Z M 5.53125 1.90625 L 3.800781 1.90625 C 3.714844 1.90625 3.628906 1.976562 3.609375 2.0625 L 3.445312 2.777344 L 3.28125 3.496094 C 3.261719 3.578125 3.316406 3.648438 3.402344 3.648438 L 5.144531 3.648438 C 5.234375 3.648438 5.320312 3.578125 5.339844 3.496094 L 5.496094 2.777344 L 5.65625 2.0625 C 5.671875 1.976562 5.617188 1.90625 5.53125 1.90625 Z M 5.152344 4.292969 L 4.648438 6.613281 Z M 0.136719 11.988281 C 0.136719 11.988281 1.003906 12 1.558594 12 C 1.140625 12 0.445312 11.992188 0.132812 11.988281 Z M 3.09375 4.292969 L 2.847656 5.363281 Z M 3.09375 4.292969 "/>
<path style=" stroke:none;fill-rule:nonzero;fill:rgb(41.960784%,62.745098%,67.058824%);fill-opacity:1;" d="M 5.027344 4.136719 L 3.289062 4.136719 C 3.199219 4.136719 3.113281 4.207031 3.09375 4.292969 L 2.847656 5.363281 L 2.605469 6.4375 C 2.585938 6.523438 2.554688 6.660156 2.535156 6.746094 L 2.300781 7.84375 L 2.066406 8.9375 C 2.046875 9.023438 2.011719 9.160156 1.984375 9.242188 C 1.984375 9.242188 1.65625 10.199219 1.109375 10.1875 C 1.085938 10.1875 1.066406 10.1875 1.042969 10.1875 C 0.777344 10.183594 0.570312 10.179688 0.570312 10.179688 C 0.480469 10.179688 0.394531 10.246094 0.375 10.328125 L 0.191406 11.082031 L 0.0117188 11.832031 C -0.0078125 11.917969 0.046875 11.988281 0.132812 11.988281 C 0.445312 11.992188 1.136719 12 1.558594 12 C 2.925781 12 3.644531 11.25 4.105469 9.089844 L 4.648438 6.613281 L 5.152344 4.292969 C 5.171875 4.207031 5.117188 4.136719 5.027344 4.136719 Z M 29.761719 9.089844 C 29.675781 9.089844 29.621094 9.019531 29.636719 8.933594 L 30.949219 2.855469 M 31.582031 8.933594 L 32.113281 6.339844 Z M 31.582031 8.933594 "/>
<path style=" stroke:none;fill-rule:nonzero;fill:rgb(41.960784%,62.745098%,67.058824%);fill-opacity:1;" d="M 29.65625 9.011719 C 29.644531 8.96875 29.652344 8.867188 29.671875 8.78125 L 30.292969 5.894531 L 29.636719 8.933594 C 29.617188 9.019531 29.675781 9.089844 29.761719 9.089844 L 29.921875 9.089844 C 29.835938 9.089844 29.667969 9.054688 29.65625 9.011719 Z M 31.480469 9.054688 C 31.433594 9.074219 31.320312 9.089844 31.234375 9.089844 L 31.394531 9.089844 C 31.480469 9.089844 31.566406 9.019531 31.582031 8.933594 L 31.617188 8.78125 C 31.597656 8.863281 31.527344 9.035156 31.480469 9.054688 Z M 31.847656 7.636719 L 32.082031 6.492188 Z M 37.015625 3.261719 L 37.089844 3.558594 C 37.109375 3.640625 37.054688 3.710938 36.96875 3.710938 M 31.617188 8.78125 L 31.847656 7.636719 Z M 36.945312 2.960938 L 37.015625 3.261719 Z M 32.082031 6.492188 C 32.101562 6.40625 32.128906 6.269531 32.148438 6.183594 L 32.398438 5.027344 L 32.113281 6.339844 Z M 30.96875 2.753906 C 30.953125 2.835938 30.929688 2.941406 30.914062 3.007812 L 30.292969 5.894531 L 30.949219 2.855469 Z M 30.96875 2.753906 "/>
<path style=" stroke:none;fill-rule:nonzero;fill:rgb(41.960784%,62.745098%,67.058824%);fill-opacity:1;" d="M 37.089844 3.558594 L 37.015625 3.261719 L 36.945312 2.960938 L 36.910156 2.804688 C 36.769531 2.261719 36.351562 1.945312 35.453125 1.945312 L 31.300781 1.945312 C 31.214844 1.945312 31.128906 2.011719 31.109375 2.097656 L 31.042969 2.398438 L 30.96875 2.753906 L 30.949219 2.855469 L 30.292969 5.894531 L 29.671875 8.78125 C 29.652344 8.867188 29.648438 8.96875 29.65625 9.011719 C 29.667969 9.054688 29.835938 9.089844 29.921875 9.089844 L 31.234375 9.089844 C 31.324219 9.089844 31.433594 9.074219 31.480469 9.054688 C 31.527344 9.035156 31.597656 8.863281 31.617188 8.78125 L 31.851562 7.636719 L 32.082031 6.492188 L 32.113281 6.339844 L 32.398438 5.027344 L 32.648438 3.867188 C 32.667969 3.78125 32.753906 3.714844 32.839844 3.710938 L 36.96875 3.710938 C 37.054688 3.710938 37.109375 3.640625 37.089844 3.558594 Z M 37.089844 3.558594 "/>
<path style=" stroke:none;fill-rule:nonzero;fill:rgb(41.960784%,62.745098%,67.058824%);fill-opacity:1;" d="M 42.402344 0.886719 C 42.316406 0.886719 42.171875 0.886719 42.085938 0.886719 L 40.765625 0.886719 C 40.675781 0.886719 40.566406 0.945312 40.515625 1.015625 L 37.59375 5.257812 C 37.542969 5.332031 37.488281 5.320312 37.46875 5.234375 L 37.253906 4.300781 C 37.234375 4.214844 37.148438 4.148438 37.058594 4.148438 L 35.183594 4.148438 C 35.09375 4.148438 35.042969 4.214844 35.066406 4.300781 L 35.90625 7.222656 C 35.933594 7.304688 35.933594 7.441406 35.910156 7.523438 L 35.546875 8.9375 C 35.523438 9.023438 35.578125 9.09375 35.664062 9.09375 L 37.519531 9.09375 C 37.609375 9.09375 37.699219 9.023438 37.71875 8.9375 L 38.085938 7.523438 C 38.109375 7.441406 38.167969 7.316406 38.222656 7.246094 L 42.964844 1.007812 C 43.019531 0.9375 42.988281 0.882812 42.902344 0.882812 Z M 27.480469 4.546875 L 27.480469 4.542969 C 27.46875 4.636719 27.378906 4.707031 27.292969 4.707031 L 24.914062 4.707031 C 24.828125 4.707031 24.789062 4.652344 24.800781 4.582031 C 24.800781 4.582031 24.800781 4.578125 24.800781 4.578125 C 24.800781 4.574219 24.800781 4.574219 24.800781 4.570312 C 24.800781 4.570312 24.808594 4.554688 24.8125 4.53125 C 25.039062 3.929688 25.503906 3.539062 26.375 3.539062 C 27.355469 3.539062 27.546875 4.011719 27.480469 4.546875 Z M 26.78125 1.820312 C 23.722656 1.820312 23 3.660156 22.59375 5.515625 C 22.1875 7.40625 22.222656 9.175781 25.386719 9.175781 L 25.496094 9.175781 C 25.507812 9.175781 25.519531 9.175781 25.527344 9.175781 L 25.730469 9.175781 C 25.746094 9.175781 25.757812 9.175781 25.769531 9.175781 L 25.886719 9.175781 C 26.011719 9.175781 26.140625 9.175781 26.265625 9.175781 L 26.273438 9.175781 C 27.109375 9.171875 27.945312 9.164062 28.285156 9.164062 C 28.371094 9.160156 28.457031 9.09375 28.476562 9.007812 L 28.601562 8.386719 L 28.628906 8.265625 L 28.78125 7.527344 C 28.796875 7.441406 28.742188 7.371094 28.652344 7.371094 L 25.8125 7.371094 C 24.679688 7.371094 24.34375 7.074219 24.46875 6.199219 L 29.011719 6.199219 C 29.015625 6.199219 29.015625 6.199219 29.015625 6.199219 C 29.089844 6.199219 29.15625 6.148438 29.179688 6.082031 C 29.1875 6.070312 29.191406 6.058594 29.191406 6.042969 C 29.867188 3.519531 29.671875 1.820312 26.78125 1.820312 Z M 12.332031 4.535156 L 12.289062 4.6875 L 11.945312 5.894531 L 11.601562 7.097656 C 11.578125 7.179688 11.488281 7.25 11.402344 7.25 L 9.582031 7.25 C 8.207031 7.25 7.871094 6.183594 8.207031 4.605469 C 8.542969 2.996094 9.199219 1.992188 10.554688 1.890625 C 12.410156 1.753906 12.78125 3.042969 12.332031 4.535156 Z M 13.578125 7.15625 C 13.578125 7.15625 14.433594 5.097656 14.628906 3.90625 C 14.894531 2.3125 14.089844 0 10.980469 0 C 7.886719 0 6.546875 2.207031 6.03125 4.605469 C 5.519531 7.023438 6.191406 9.140625 9.265625 9.125 L 11.691406 9.113281 L 13.960938 9.105469 C 14.046875 9.105469 14.136719 9.039062 14.160156 8.953125 L 14.554688 7.460938 C 14.574219 7.378906 14.523438 7.308594 14.433594 7.308594 L 14.054688 7.304688 L 13.675781 7.304688 C 13.601562 7.304688 13.5625 7.253906 13.570312 7.191406 C 13.570312 7.179688 13.574219 7.167969 13.578125 7.15625 Z M 13.578125 7.15625 "/>
<path style=" stroke:none;fill-rule:nonzero;fill:rgb(41.960784%,62.745098%,67.058824%);fill-opacity:1;" d="M 28.886719 5.777344 C 28.886719 5.835938 28.839844 5.882812 28.78125 5.882812 C 28.726562 5.882812 28.679688 5.835938 28.679688 5.777344 C 28.679688 5.71875 28.726562 5.675781 28.78125 5.675781 C 28.839844 5.675781 28.886719 5.71875 28.886719 5.777344 Z M 28.886719 5.777344 "/>
</g>
</svg>
