<?xml version="1.0" encoding="UTF-8"?>
<svg xmlns="http://www.w3.org/2000/svg" xmlns:xlink="http://www.w3.org/1999/xlink" width="43px" height="20px" viewBox="0 0 72 20" version="1.1">
<defs>
<linearGradient id="linear0" gradientUnits="userSpaceOnUse" x1="0.5" y1="-0.0000029326" x2="0.5" y2="0.999997" gradientTransform="matrix(6.757812,0,0,6.253906,5.023438,13.691406)">
<stop offset="0" style="stop-color:rgb(94.901961%,56.862745%,0%);stop-opacity:1;"/>
<stop offset="1" style="stop-color:rgb(92.54902%,40.392157%,5.882353%);stop-opacity:1;"/>
</linearGradient>
<linearGradient id="linear1" gradientUnits="userSpaceOnUse" x1="0.499999" y1="-0.00000138653" x2="0.499999" y2="0.999998" gradientTransform="matrix(22.703125,0,0,19.839844,0,0)">
<stop offset="0" style="stop-color:rgb(94.901961%,56.862745%,0%);stop-opacity:1;"/>
<stop offset="1" style="stop-color:rgb(92.54902%,40.392157%,5.882353%);stop-opacity:1;"/>
</linearGradient>
<linearGradient id="linear2" gradientUnits="userSpaceOnUse" x1="0.5" y1="-0.00000496436" x2="0.5" y2="0.999995" gradientTransform="matrix(6.273438,0,0,6.96875,0,12.746094)">
<stop offset="0" style="stop-color:rgb(94.901961%,56.862745%,0%);stop-opacity:1;"/>
<stop offset="1" style="stop-color:rgb(92.54902%,40.392157%,5.882353%);stop-opacity:1;"/>
</linearGradient>
</defs>
<g id="surface1">
<path style=" stroke:none;fill-rule:nonzero;fill:rgb(100%,100%,100%);fill-opacity:1;" d="M 11.804688 17.566406 C 11.777344 17.371094 11.832031 17.175781 11.773438 16.992188 C 11.722656 16.828125 11.609375 16.8125 11.53125 16.683594 C 11.332031 16.339844 11.125 15.894531 11.105469 15.472656 C 11.089844 15.09375 10.953125 14.753906 10.933594 14.375 C 10.925781 14.195312 10.945312 14.007812 10.9375 13.832031 C 10.933594 13.742188 10.929688 13.667969 10.914062 13.574219 C 10.910156 13.550781 10.894531 13.453125 10.886719 13.414062 L 10.933594 13.296875 C 10.914062 13.257812 11.332031 13.269531 11.457031 13.269531 C 11.667969 13.273438 11.867188 13.285156 12.078125 13.296875 C 12.511719 13.316406 12.902344 13.3125 13.324219 13.246094 C 14.261719 13.101562 14.691406 12.714844 14.910156 12.554688 C 15.773438 11.929688 16.167969 10.90625 16.167969 10.90625 C 16.308594 10.585938 16.308594 10.015625 16.613281 9.761719 C 16.96875 9.457031 17.574219 9.480469 17.984375 9.296875 C 18.226562 9.1875 18.398438 9.128906 18.644531 9.179688 C 18.828125 9.21875 19.15625 9.433594 19.230469 9.132812 C 19.171875 9.09375 19.148438 9.019531 19.113281 8.980469 C 19.453125 8.945312 19.121094 8.152344 18.988281 7.992188 C 18.78125 7.75 18.433594 7.636719 18.066406 7.539062 C 17.628906 7.421875 17.230469 7.285156 16.820312 7.367188 C 16.101562 7.507812 16.15625 7.09375 15.730469 7.09375 C 15.222656 7.09375 14.316406 7.121094 14.160156 7.617188 C 14.089844 7.851562 14.015625 7.859375 13.886719 8.039062 C 13.78125 8.191406 13.90625 8.328125 13.851562 8.5 C 13.796875 8.679688 13.714844 9.3125 13.628906 9.535156 C 13.484375 9.90625 13.3125 10.371094 12.992188 10.371094 C 12.542969 10.425781 12.191406 10.445312 11.832031 10.3125 C 11.613281 10.230469 11.246094 10.105469 11.066406 10.027344 C 10.230469 9.675781 10.09375 9.285156 10.09375 9.285156 C 10.003906 9.136719 9.765625 8.894531 9.679688 8.582031 C 9.582031 8.234375 9.417969 7.949219 9.351562 7.765625 C 9.28125 7.582031 9.117188 7.28125 8.988281 6.957031 C 8.824219 6.542969 8.59375 6.234375 8.421875 6.082031 C 8.160156 5.847656 7.921875 5.488281 7.394531 5.59375 C 7.300781 5.609375 6.957031 5.625 6.695312 5.847656 C 6.515625 6 6.460938 6.3125 6.292969 6.574219 C 6.199219 6.726562 6.03125 7.160156 5.878906 7.523438 C 5.769531 7.773438 5.722656 7.960938 5.605469 8.054688 C 5.515625 8.128906 5.40625 8.222656 5.269531 8.171875 C 5.1875 8.136719 5.097656 8.085938 5.007812 8.015625 C 4.882812 7.917969 4.605469 7.441406 4.4375 7.089844 C 4.289062 6.785156 3.972656 6.328125 3.789062 6.082031 C 3.527344 5.726562 3.375 5.636719 2.988281 5.636719 C 2.15625 5.636719 2.089844 6.105469 1.726562 6.789062 C 1.566406 7.089844 1.507812 7.566406 1.183594 7.9375 C 1 8.152344 0.410156 9.03125 0 9.179688 L 0 9.175781 L 0 15.449219 L 0 15.410156 C 0.0273438 15.328125 0.0546875 15.25 0.0859375 15.179688 C 0.246094 14.839844 0.613281 14.523438 0.816406 14.175781 C 0.929688 13.984375 1.054688 13.796875 1.128906 13.597656 C 1.191406 13.425781 1.222656 13.171875 1.3125 13.019531 C 1.425781 12.835938 1.601562 12.777344 1.78125 12.746094 C 2.0625 12.699219 2.300781 13.15625 2.664062 13.324219 C 2.816406 13.394531 3.523438 13.644531 3.738281 13.699219 C 4.085938 13.78125 4.476562 13.851562 4.828125 13.925781 C 5.019531 13.964844 5.203125 13.988281 5.398438 14.007812 C 5.574219 14.023438 6.230469 14.046875 6.273438 14.09375 C 5.9375 14.265625 5.742188 14.75 5.617188 15.089844 C 5.484375 15.449219 5.394531 15.84375 5.234375 16.191406 C 5.058594 16.578125 4.691406 16.738281 4.734375 17.1875 C 4.753906 17.363281 4.785156 17.554688 4.753906 17.75 C 4.722656 17.957031 4.640625 18.117188 4.582031 18.320312 C 4.503906 18.585938 4.410156 19.441406 4.289062 19.695312 L 5.023438 19.601562 C 5.105469 19.410156 5.175781 18.601562 5.203125 18.523438 C 5.339844 18.117188 5.523438 17.785156 5.800781 17.46875 C 6.074219 17.164062 6.058594 16.769531 6.21875 16.414062 C 6.390625 16.027344 6.621094 15.714844 6.839844 15.351562 C 7.238281 14.695312 7.496094 13.863281 8.335938 13.691406 C 8.425781 13.675781 8.941406 14.046875 9.167969 14.269531 C 9.429688 14.523438 9.714844 14.816406 9.886719 15.167969 C 10.21875 15.84375 10.503906 16.824219 10.609375 17.367188 C 10.671875 17.675781 10.71875 17.695312 10.925781 17.941406 C 11.023438 18.054688 11.214844 18.40625 11.277344 18.542969 C 11.34375 18.6875 11.445312 19.015625 11.523438 19.183594 C 11.570312 19.285156 11.695312 19.589844 11.78125 19.855469 L 12.464844 19.832031 C 12.46875 19.839844 12.480469 19.832031 12.484375 19.835938 C 12.484375 19.832031 12.480469 19.824219 12.476562 19.820312 C 12.136719 19.128906 11.917969 18.332031 11.804688 17.566406 Z M 11.804688 17.566406 "/>
<path style=" stroke:none;fill-rule:nonzero;fill:url(#linear0);" d="M 11.523438 19.183594 C 11.445312 19.015625 11.34375 18.6875 11.277344 18.542969 C 11.214844 18.40625 11.023438 18.054688 10.925781 17.941406 C 10.71875 17.695312 10.671875 17.675781 10.609375 17.367188 C 10.503906 16.824219 10.21875 15.84375 9.886719 15.167969 C 9.714844 14.816406 9.429688 14.523438 9.167969 14.269531 C 8.941406 14.046875 8.425781 13.675781 8.335938 13.691406 C 7.496094 13.863281 7.238281 14.691406 6.839844 15.351562 C 6.621094 15.714844 6.390625 16.023438 6.21875 16.414062 C 6.058594 16.769531 6.074219 17.164062 5.800781 17.46875 C 5.523438 17.78125 5.339844 18.117188 5.203125 18.523438 C 5.179688 18.601562 5.105469 19.410156 5.023438 19.601562 L 6.273438 19.511719 C 7.4375 19.59375 7.101562 20.042969 8.914062 19.945312 L 11.78125 19.855469 C 11.695312 19.589844 11.570312 19.28125 11.523438 19.183594 Z M 11.523438 19.183594 "/>
<path style=" stroke:none;fill-rule:nonzero;fill:url(#linear1);" d="M 19.84375 0 L 2.863281 0 C 1.28125 0 0 1.292969 0 2.886719 L 0 9.179688 C 0.410156 9.03125 1 8.152344 1.183594 7.9375 C 1.507812 7.566406 1.566406 7.089844 1.726562 6.789062 C 2.089844 6.105469 2.15625 5.636719 2.988281 5.636719 C 3.375 5.636719 3.527344 5.726562 3.789062 6.082031 C 3.972656 6.328125 4.289062 6.785156 4.4375 7.089844 C 4.605469 7.441406 4.882812 7.917969 5.007812 8.011719 C 5.097656 8.085938 5.1875 8.136719 5.269531 8.171875 C 5.40625 8.222656 5.515625 8.128906 5.605469 8.054688 C 5.722656 7.960938 5.773438 7.773438 5.878906 7.523438 C 6.03125 7.160156 6.199219 6.726562 6.292969 6.574219 C 6.460938 6.3125 6.515625 6 6.695312 5.847656 C 6.957031 5.625 7.300781 5.609375 7.394531 5.59375 C 7.921875 5.488281 8.160156 5.847656 8.421875 6.082031 C 8.59375 6.234375 8.824219 6.542969 8.988281 6.957031 C 9.117188 7.28125 9.285156 7.582031 9.351562 7.765625 C 9.417969 7.945312 9.582031 8.234375 9.679688 8.582031 C 9.769531 8.894531 10.003906 9.136719 10.09375 9.285156 C 10.09375 9.285156 10.230469 9.675781 11.066406 10.027344 C 11.246094 10.105469 11.613281 10.230469 11.832031 10.3125 C 12.195312 10.445312 12.542969 10.425781 12.992188 10.371094 C 13.3125 10.371094 13.484375 9.90625 13.628906 9.535156 C 13.714844 9.3125 13.796875 8.679688 13.851562 8.5 C 13.90625 8.328125 13.78125 8.191406 13.886719 8.039062 C 14.015625 7.859375 14.089844 7.851562 14.160156 7.617188 C 14.320312 7.121094 15.222656 7.09375 15.730469 7.09375 C 16.15625 7.09375 16.101562 7.507812 16.820312 7.367188 C 17.230469 7.285156 17.628906 7.421875 18.066406 7.539062 C 18.433594 7.636719 18.78125 7.75 18.988281 7.992188 C 19.121094 8.152344 19.453125 8.945312 19.113281 8.980469 C 19.148438 9.019531 19.171875 9.09375 19.234375 9.132812 C 19.15625 9.433594 18.828125 9.21875 18.644531 9.179688 C 18.398438 9.128906 18.226562 9.1875 17.984375 9.296875 C 17.574219 9.480469 16.972656 9.457031 16.613281 9.761719 C 16.308594 10.015625 16.308594 10.585938 16.167969 10.90625 C 16.167969 10.90625 15.773438 11.925781 14.910156 12.554688 C 14.691406 12.714844 14.261719 13.101562 13.324219 13.246094 C 12.902344 13.3125 12.511719 13.316406 12.078125 13.296875 C 11.867188 13.285156 11.667969 13.273438 11.457031 13.269531 C 11.332031 13.269531 10.914062 13.257812 10.933594 13.296875 L 10.886719 13.414062 C 10.894531 13.453125 10.910156 13.550781 10.914062 13.574219 C 10.929688 13.667969 10.933594 13.742188 10.9375 13.828125 C 10.945312 14.007812 10.925781 14.195312 10.933594 14.375 C 10.953125 14.75 11.089844 15.09375 11.105469 15.472656 C 11.125 15.894531 11.332031 16.339844 11.53125 16.683594 C 11.609375 16.8125 11.722656 16.828125 11.773438 16.988281 C 11.832031 17.175781 11.777344 17.371094 11.804688 17.566406 C 11.917969 18.332031 12.136719 19.128906 12.476562 19.820312 C 12.480469 19.824219 12.484375 19.832031 12.484375 19.835938 C 12.90625 19.765625 13.328125 19.613281 13.875 19.53125 C 14.878906 19.378906 16.273438 19.457031 17.167969 19.375 C 19.4375 19.160156 20.667969 20.3125 22.703125 19.839844 L 22.703125 2.886719 C 22.703125 1.292969 21.425781 0 19.84375 0 Z M 11.371094 13.542969 C 11.367188 13.507812 11.371094 13.511719 11.375 13.535156 Z M 11.371094 13.542969 "/>
<path style=" stroke:none;fill-rule:nonzero;fill:url(#linear2);" d="M 5.234375 16.191406 C 5.394531 15.84375 5.484375 15.445312 5.617188 15.089844 C 5.742188 14.75 5.9375 14.265625 6.273438 14.09375 C 6.230469 14.046875 5.574219 14.023438 5.398438 14.007812 C 5.203125 13.984375 5.019531 13.964844 4.828125 13.925781 C 4.472656 13.851562 4.085938 13.78125 3.738281 13.699219 C 3.523438 13.644531 2.816406 13.394531 2.664062 13.320312 C 2.300781 13.15625 2.0625 12.699219 1.78125 12.746094 C 1.601562 12.773438 1.425781 12.835938 1.3125 13.019531 C 1.222656 13.167969 1.191406 13.425781 1.128906 13.597656 C 1.054688 13.796875 0.929688 13.984375 0.816406 14.175781 C 0.613281 14.523438 0.246094 14.839844 0.0859375 15.179688 C 0.0546875 15.25 0.0273438 15.328125 0 15.410156 L 0 19.300781 C 0.1875 19.332031 0.378906 19.371094 0.59375 19.429688 C 2.191406 19.859375 2.578125 19.894531 4.144531 19.714844 L 4.289062 19.695312 C 4.410156 19.441406 4.503906 18.585938 4.582031 18.320312 C 4.640625 18.117188 4.722656 17.957031 4.753906 17.75 C 4.785156 17.550781 4.753906 17.363281 4.734375 17.1875 C 4.691406 16.738281 5.058594 16.578125 5.234375 16.191406 Z M 5.234375 16.191406 "/>
<path style=" stroke:none;fill-rule:nonzero;fill:rgb(28.235294%,26.666667%,26.666667%);fill-opacity:1;" d="M 29.945312 17.402344 C 29.191406 17.402344 28.5 17.265625 27.878906 16.996094 C 27.253906 16.726562 26.71875 16.335938 26.273438 15.828125 C 25.828125 15.320312 25.480469 14.703125 25.234375 13.976562 C 24.988281 13.246094 24.863281 12.421875 24.863281 11.5 C 24.863281 10.578125 24.988281 9.753906 25.234375 9.03125 C 25.480469 8.3125 25.828125 7.707031 26.273438 7.214844 C 26.71875 6.726562 27.253906 6.347656 27.878906 6.089844 C 28.5 5.832031 29.191406 5.699219 29.945312 5.699219 C 30.699219 5.699219 31.390625 5.832031 32.011719 6.089844 C 32.636719 6.347656 33.171875 6.726562 33.617188 7.222656 C 34.0625 7.71875 34.410156 8.328125 34.65625 9.050781 C 34.902344 9.773438 35.023438 10.589844 35.023438 11.5 C 35.023438 12.421875 34.902344 13.25 34.65625 13.976562 C 34.410156 14.703125 34.0625 15.320312 33.617188 15.828125 C 33.171875 16.335938 32.636719 16.726562 32.011719 16.996094 C 31.390625 17.265625 30.699219 17.402344 29.945312 17.402344 Z M 29.945312 15.203125 C 30.710938 15.203125 31.316406 14.871094 31.765625 14.207031 C 32.210938 13.546875 32.433594 12.640625 32.433594 11.5 C 32.433594 10.367188 32.210938 9.484375 31.765625 8.851562 C 31.316406 8.214844 30.710938 7.898438 29.945312 7.898438 C 29.179688 7.898438 28.570312 8.214844 28.125 8.851562 C 27.679688 9.484375 27.457031 10.367188 27.457031 11.5 C 27.457031 12.640625 27.679688 13.546875 28.125 14.207031 C 28.574219 14.871094 29.179688 15.203125 29.945312 15.203125 Z M 29.945312 15.203125 "/>
<path style=" stroke:none;fill-rule:nonzero;fill:rgb(28.235294%,26.666667%,26.666667%);fill-opacity:1;" d="M 35.917969 11.621094 C 35.917969 10.6875 36.058594 9.851562 36.347656 9.121094 C 36.632812 8.386719 37.019531 7.765625 37.503906 7.257812 C 37.992188 6.75 38.558594 6.363281 39.203125 6.097656 C 39.851562 5.832031 40.535156 5.699219 41.253906 5.699219 C 41.953125 5.699219 42.585938 5.847656 43.152344 6.140625 C 43.71875 6.4375 44.191406 6.78125 44.566406 7.171875 L 43.175781 8.746094 C 42.890625 8.480469 42.601562 8.273438 42.308594 8.125 C 42.019531 7.972656 41.679688 7.898438 41.289062 7.898438 C 40.898438 7.898438 40.535156 7.984375 40.199219 8.148438 C 39.863281 8.316406 39.566406 8.554688 39.316406 8.867188 C 39.0625 9.179688 38.867188 9.558594 38.722656 10.011719 C 38.582031 10.460938 38.507812 10.96875 38.507812 11.535156 C 38.507812 12.699219 38.753906 13.601562 39.246094 14.242188 C 39.738281 14.882812 40.398438 15.203125 41.222656 15.203125 C 41.679688 15.203125 42.078125 15.113281 42.421875 14.925781 C 42.765625 14.742188 43.074219 14.5 43.347656 14.199219 L 44.738281 15.742188 C 44.269531 16.292969 43.734375 16.710938 43.132812 16.988281 C 42.535156 17.265625 41.882812 17.402344 41.1875 17.402344 C 40.464844 17.402344 39.785156 17.277344 39.144531 17.03125 C 38.503906 16.78125 37.941406 16.414062 37.460938 15.929688 C 36.980469 15.445312 36.605469 14.84375 36.328125 14.121094 C 36.054688 13.402344 35.917969 12.566406 35.917969 11.621094 Z M 35.917969 11.621094 "/>
<path style=" stroke:none;fill-rule:nonzero;fill:rgb(28.235294%,26.666667%,26.666667%);fill-opacity:1;" d="M 45.578125 14.804688 C 45.578125 13.90625 45.957031 13.203125 46.710938 12.695312 C 47.46875 12.1875 48.6875 11.847656 50.367188 11.671875 C 50.34375 11.292969 50.230469 10.988281 50.023438 10.765625 C 49.820312 10.539062 49.488281 10.425781 49.027344 10.425781 C 48.664062 10.425781 48.296875 10.496094 47.929688 10.632812 C 47.566406 10.773438 47.175781 10.964844 46.765625 11.207031 L 45.871094 9.527344 C 46.421875 9.191406 46.996094 8.921875 47.597656 8.710938 C 48.195312 8.503906 48.835938 8.402344 49.507812 8.402344 C 50.609375 8.402344 51.445312 8.714844 52.023438 9.34375 C 52.601562 9.972656 52.890625 10.953125 52.890625 12.277344 L 52.890625 17.195312 L 50.832031 17.195312 L 50.644531 16.3125 L 50.589844 16.3125 C 50.226562 16.636719 49.839844 16.898438 49.433594 17.101562 C 49.027344 17.300781 48.582031 17.402344 48.101562 17.402344 C 47.714844 17.402344 47.363281 17.335938 47.054688 17.203125 C 46.746094 17.070312 46.484375 16.886719 46.265625 16.648438 C 46.050781 16.414062 45.878906 16.140625 45.761719 15.828125 C 45.640625 15.515625 45.578125 15.175781 45.578125 14.804688 Z M 47.984375 14.617188 C 47.984375 14.890625 48.070312 15.097656 48.25 15.230469 C 48.425781 15.363281 48.664062 15.429688 48.960938 15.429688 C 49.257812 15.429688 49.511719 15.367188 49.714844 15.238281 C 49.921875 15.113281 50.140625 14.933594 50.367188 14.703125 L 50.367188 13.195312 C 49.464844 13.324219 48.839844 13.507812 48.496094 13.75 C 48.152344 13.992188 47.984375 14.28125 47.984375 14.617188 Z M 47.984375 14.617188 "/>
<path style=" stroke:none;fill-rule:nonzero;fill:rgb(28.235294%,26.666667%,26.666667%);fill-opacity:1;" d="M 54.367188 8.609375 L 56.425781 8.609375 L 56.597656 9.714844 L 56.667969 9.714844 C 57.019531 9.359375 57.398438 9.050781 57.800781 8.789062 C 58.199219 8.53125 58.679688 8.402344 59.242188 8.402344 C 59.847656 8.402344 60.335938 8.523438 60.707031 8.773438 C 61.082031 9.019531 61.375 9.375 61.59375 9.835938 C 61.96875 9.445312 62.367188 9.109375 62.785156 8.824219 C 63.203125 8.542969 63.695312 8.402344 64.269531 8.402344 C 65.183594 8.402344 65.855469 8.710938 66.285156 9.328125 C 66.714844 9.945312 66.929688 10.789062 66.929688 11.863281 L 66.929688 17.195312 L 64.40625 17.195312 L 64.40625 12.191406 C 64.40625 11.570312 64.324219 11.140625 64.15625 10.910156 C 63.992188 10.679688 63.726562 10.5625 63.359375 10.5625 C 62.9375 10.5625 62.449219 10.839844 61.902344 11.394531 L 61.902344 17.195312 L 59.378906 17.195312 L 59.378906 12.191406 C 59.378906 11.570312 59.296875 11.140625 59.128906 10.910156 C 58.964844 10.679688 58.699219 10.5625 58.332031 10.5625 C 57.894531 10.5625 57.414062 10.839844 56.890625 11.394531 L 56.890625 17.195312 L 54.367188 17.195312 Z M 54.367188 8.609375 "/>
<path style=" stroke:none;fill-rule:nonzero;fill:rgb(28.235294%,26.666667%,26.666667%);fill-opacity:1;" d="M 68.386719 5.058594 L 70.910156 5.058594 L 70.910156 14.632812 C 70.910156 14.898438 70.960938 15.082031 71.058594 15.1875 C 71.15625 15.289062 71.253906 15.34375 71.359375 15.34375 L 71.503906 15.34375 C 71.542969 15.34375 71.597656 15.332031 71.667969 15.308594 L 71.976562 17.195312 C 71.839844 17.253906 71.664062 17.300781 71.453125 17.34375 C 71.238281 17.382812 70.992188 17.402344 70.707031 17.402344 C 70.269531 17.402344 69.902344 17.332031 69.605469 17.195312 C 69.308594 17.054688 69.070312 16.863281 68.894531 16.613281 C 68.71875 16.367188 68.589844 16.066406 68.507812 15.714844 C 68.429688 15.363281 68.386719 14.96875 68.386719 14.527344 Z M 68.386719 5.058594 "/>
</g>
</svg>
