<?xml version="1.0" encoding="UTF-8"?>
<svg xmlns="http://www.w3.org/2000/svg" xmlns:xlink="http://www.w3.org/1999/xlink" width="43px" height="200px" viewBox="0 0 43 22" version="1.1">
<g id="surface1">
<path style=" stroke:none;fill-rule:evenodd;fill:rgb(53.72549%,57.647059%,74.509804%);fill-opacity:1;" d="M 43 10.9375 C 43 4.894531 33.375 0 21.5 0 C 9.625 0 0 4.894531 0 10.9375 C 0 16.976562 9.625 21.871094 21.5 21.871094 C 33.375 21.871094 43 16.976562 43 10.9375 Z M 43 10.9375 "/>
<path style=" stroke:none;fill-rule:evenodd;fill:rgb(13.72549%,14.509804%,19.215686%);fill-opacity:1;" d="M 6.039062 17.410156 L 8.394531 5.753906 L 13.84375 5.753906 C 16.199219 5.898438 17.375 7.050781 17.375 9.066406 C 17.375 12.519531 14.578125 14.535156 12.074219 14.390625 L 9.425781 14.390625 L 8.835938 17.410156 Z M 10.011719 12.230469 L 10.75 7.914062 L 12.664062 7.914062 C 13.695312 7.914062 14.429688 8.347656 14.429688 9.210938 C 14.285156 11.65625 13.105469 12.085938 11.78125 12.230469 Z M 16.828125 14.390625 L 19.183594 2.734375 L 21.984375 2.734375 L 21.394531 5.753906 L 24.042969 5.753906 C 26.402344 5.898438 27.285156 7.050781 26.988281 8.488281 L 25.960938 14.390625 L 23.015625 14.390625 L 24.042969 9.066406 C 24.191406 8.347656 24.191406 7.914062 23.160156 7.914062 L 20.953125 7.914062 L 19.628906 14.390625 Z M 25.769531 17.410156 L 28.125 5.753906 L 33.574219 5.753906 C 35.929688 5.898438 37.109375 7.050781 37.109375 9.066406 C 37.109375 12.519531 34.3125 14.535156 31.808594 14.390625 L 29.15625 14.390625 L 28.570312 17.410156 Z M 29.746094 12.230469 L 30.484375 7.914062 L 32.398438 7.914062 C 33.429688 7.914062 34.164062 8.347656 34.164062 9.210938 C 34.015625 11.65625 32.839844 12.085938 31.515625 12.230469 Z M 29.746094 12.230469 "/>
</g>
</svg>
