<?xml version="1.0" encoding="UTF-8"?>
<svg xmlns="http://www.w3.org/2000/svg" xmlns:xlink="http://www.w3.org/1999/xlink" width="43px" height="200px" viewBox="0 0 43 38" version="1.1">
<g id="surface1">
<path style=" stroke:none;fill-rule:evenodd;fill:rgb(100%,100%,100%);fill-opacity:1;" d="M 0.00390625 0 L 38.308594 0 L 38.308594 38 L 0.00390625 38 Z M 0.00390625 0 "/>
<path style="fill-rule:evenodd;fill:rgb(100%,79.215686%,11.764706%);fill-opacity:1;stroke-width:1.11;stroke-linecap:square;stroke-linejoin:round;stroke:rgb(84.313725%,77.254902%,69.803922%);stroke-opacity:1;stroke-miterlimit:1.5;" d="M 673.402367 236.096116 L 609.134429 244.171009 L 609.152113 525.471362 L 673.411078 525.738361 Z M 673.402367 236.096116 " transform="matrix(0.0653505,-0.0236075,0.0141184,0.00512557,-22.371721,24.96847)"/>
<path style="fill-rule:evenodd;fill:rgb(100%,82.352941%,25.490196%);fill-opacity:1;stroke-width:0.35;stroke-linecap:square;stroke-linejoin:round;stroke:rgb(84.313725%,77.254902%,69.803922%);stroke-opacity:1;stroke-miterlimit:1.5;" d="M 609.143706 244.274787 L 673.417486 244.264817 L 673.417486 525.673949 L 609.143706 525.68392 Z M 609.143706 244.274787 " transform="matrix(0.251123,-0.0910968,0,0.0336199,-140.052031,64.89963)"/>
<path style="fill-rule:evenodd;fill:rgb(18.431373%,39.215686%,56.470588%);fill-opacity:1;stroke-width:0.62;stroke-linecap:square;stroke-linejoin:round;stroke:rgb(81.960784%,89.019608%,94.901961%);stroke-opacity:1;stroke-miterlimit:1.5;" d="M 609.151674 244.232107 L 673.42006 244.201846 L 673.40338 525.712449 L 609.134994 525.742709 Z M 609.151674 244.232107 " transform="matrix(0.125153,-0.0454005,0.0141471,0.00502043,-66.770607,36.488233)"/>
<path style="fill-rule:evenodd;fill:rgb(21.568627%,45.882353%,65.882353%);fill-opacity:1;stroke-width:1.15;stroke-linecap:square;stroke-linejoin:round;stroke:rgb(81.960784%,89.019608%,94.901961%);stroke-opacity:1;stroke-miterlimit:1.5;" d="M 609.164351 244.279014 L 673.414174 244.25551 L 673.414174 525.640192 L 609.164351 525.605342 Z M 609.164351 244.279014 " transform="matrix(0.0652969,-0.0236867,0,0.0669402,-22.862464,9.56137)"/>
<path style="fill-rule:evenodd;fill:rgb(18.431373%,39.215686%,56.470588%);fill-opacity:1;stroke-width:1.17;stroke-linecap:square;stroke-linejoin:round;stroke:rgb(100%,100%,100%);stroke-opacity:1;stroke-miterlimit:1.5;" d="M 609.142258 244.281597 L 673.405469 244.27462 L 673.405469 525.600948 L 609.142258 525.607925 Z M 609.142258 244.281597 " transform="matrix(-0.062244,-0.0221185,0,0.0669402,54.82952,8.61327)"/>
<path style="fill-rule:evenodd;fill:rgb(93.72549%,93.333333%,91.764706%);fill-opacity:1;stroke-width:1.44;stroke-linecap:square;stroke-linejoin:round;stroke:rgb(84.705882%,84.705882%,84.705882%);stroke-opacity:1;stroke-miterlimit:1.5;" d="M 609.142258 244.165218 L 673.405469 244.272038 L 673.405469 525.532132 L 609.142258 525.654725 Z M 609.142258 244.165218 " transform="matrix(-0.062244,-0.0225796,0,0.0170272,54.82952,35.159247)"/>
<path style="fill-rule:evenodd;fill:rgb(18.431373%,39.215686%,56.470588%);fill-opacity:1;stroke-width:1.44;stroke-linecap:square;stroke-linejoin:round;stroke:rgb(81.960784%,89.019608%,94.901961%);stroke-opacity:1;stroke-miterlimit:1.5;" d="M 609.137904 244.223367 L 673.40012 244.215006 L 673.40012 525.661251 L 609.137904 525.669612 Z M 609.137904 244.223367 " transform="matrix(-0.0618195,-0.0224257,0,0.0336154,50.570646,23.071763)"/>
<path style="fill-rule:evenodd;fill:rgb(21.568627%,45.882353%,65.882353%);fill-opacity:1;stroke-width:1.2;stroke-linecap:square;stroke-linejoin:round;stroke:rgb(81.960784%,89.019608%,94.901961%);stroke-opacity:1;stroke-miterlimit:1.5;" d="M 609.160219 244.291252 L 673.386348 244.246637 L 673.386348 525.631319 L 609.160219 525.617579 Z M 609.160219 244.291252 " transform="matrix(0.0597255,-0.0216663,0,0.0669402,-15.273022,6.79459)"/>
<path style="fill-rule:evenodd;fill:rgb(21.568627%,45.882353%,65.882353%);fill-opacity:1;stroke-width:1.43;stroke-linecap:square;stroke-linejoin:round;stroke:rgb(81.960784%,89.019608%,94.901961%);stroke-opacity:1;stroke-miterlimit:1.5;" d="M 609.151704 244.280588 L 673.404218 244.292403 L 673.404218 525.585347 L 609.151704 525.68972 Z M 609.151704 244.280588 " transform="matrix(0.0621936,-0.0225612,0,0.0336199,-24.967355,23.151627)"/>
<path style="fill:none;stroke-width:1;stroke-linecap:square;stroke-linejoin:round;stroke:rgb(81.960784%,89.019608%,94.901961%);stroke-opacity:1;stroke-miterlimit:1.5;" d="M 67.58629 393.184329 L 129.69159 415.634987 L 318.393802 347.296171 M 193.265389 318.184329 L 317.965489 272.604559 " transform="matrix(0.0638407,0,0,0.0633333,4.638371,-4.003237)"/>
<path style="fill:none;stroke-width:1;stroke-linecap:square;stroke-linejoin:round;stroke:rgb(84.313725%,77.254902%,69.803922%);stroke-opacity:1;stroke-miterlimit:1.5;" d="M 318.393802 347.296171 L 382.334726 324.105382 " transform="matrix(0.0638407,0,0,0.0633333,4.638371,-4.003237)"/>
<path style="fill-rule:evenodd;fill:rgb(18.431373%,39.215686%,56.470588%);fill-opacity:1;stroke-width:1.16;stroke-linecap:square;stroke-linejoin:round;stroke:rgb(81.960784%,89.019608%,94.901961%);stroke-opacity:1;stroke-miterlimit:1.5;" d="M 609.111604 244.285725 L 673.370895 244.432195 L 673.389598 525.732549 L 609.130307 525.586078 Z M 609.111604 244.285725 " transform="matrix(0.0617901,-0.0223212,0.0141184,0.00512557,-32.144578,28.523687)"/>
<path style=" stroke:none;fill-rule:evenodd;fill:rgb(100%,100%,100%);fill-opacity:1;" d="M 19.332031 12.847656 C 19.359375 13.320312 19.035156 13.882812 18.601562 14.101562 C 18.167969 14.324219 17.792969 14.121094 17.761719 13.648438 C 17.730469 13.171875 18.058594 12.609375 18.492188 12.390625 C 18.925781 12.167969 19.300781 12.371094 19.332031 12.847656 Z M 19.332031 12.847656 "/>
<path style="fill:none;stroke-width:1;stroke-linecap:square;stroke-linejoin:round;stroke:rgb(81.960784%,89.019608%,94.901961%);stroke-opacity:1;stroke-miterlimit:1.5;" d="M 195.774076 198.09798 L 257.512251 220.24025 " transform="matrix(0.0638407,0,0,0.0633333,4.638371,-4.003237)"/>
<path style="fill-rule:evenodd;fill:rgb(100%,82.352941%,25.490196%);fill-opacity:1;stroke-width:1.37;stroke-linecap:square;stroke-linejoin:round;stroke:rgb(84.313725%,77.254902%,69.803922%);stroke-opacity:1;stroke-miterlimit:1.5;" d="M 673.414174 244.243573 L 609.164351 244.290585 L 609.164351 526.632978 L 673.414174 525.652217 Z M 673.414174 244.243573 " transform="matrix(0.0652969,-0.0236867,0,0.0334672,-22.862464,27.155687)"/>
<path style="fill-rule:evenodd;fill:rgb(100%,82.352941%,25.490196%);fill-opacity:1;stroke-width:1.48;stroke-linecap:square;stroke-linejoin:round;stroke:rgb(84.313725%,77.254902%,69.803922%);stroke-opacity:1;stroke-miterlimit:1.5;" d="M 673.386348 244.27818 L 609.160219 244.250647 L 609.160219 526.075898 L 673.386348 525.635672 Z M 673.386348 244.27818 " transform="matrix(0.0597255,-0.0216663,0,0.0334039,-15.273022,24.422157)"/>
<path style=" stroke:none;fill-rule:evenodd;fill:rgb(99.607843%,99.215686%,99.215686%);fill-opacity:1;" d="M 24.488281 25.175781 C 24.519531 25.617188 24.195312 26.15625 23.769531 26.375 C 23.34375 26.589844 22.972656 26.40625 22.945312 25.964844 C 22.914062 25.519531 23.238281 24.980469 23.664062 24.765625 C 24.09375 24.546875 24.460938 24.730469 24.488281 25.175781 Z M 24.488281 25.175781 "/>
<path style="fill:none;stroke-width:1;stroke-linecap:square;stroke-linejoin:round;stroke:rgb(84.313725%,77.254902%,69.803922%);stroke-opacity:1;stroke-miterlimit:1.5;" d="M 192.408765 468.060974 L 318.454989 422.111138 " transform="matrix(0.0638407,0,0,0.0633333,4.638371,-4.003237)"/>
</g>
</svg>
