<?xml version="1.0" encoding="UTF-8"?>
<svg xmlns="http://www.w3.org/2000/svg" xmlns:xlink="http://www.w3.org/1999/xlink" width="43px" height="200px" viewBox="0 0 43 43" version="1.1">
<g id="surface1">
<path style=" stroke:none;fill-rule:nonzero;fill:rgb(46.666667%,73.72549%,12.156863%);fill-opacity:1;" d="M 39.109375 2.242188 C 38.503906 3.6875 37.734375 5.058594 36.8125 6.316406 C 32.769531 2.277344 27.28125 0.00390625 21.5625 0.00390625 C 9.734375 0.00390625 0 9.742188 0 21.582031 C 0 27.488281 2.417969 33.144531 6.699219 37.21875 L 7.492188 37.925781 C 11.378906 41.199219 16.304688 43.003906 21.382812 43.003906 C 32.628906 43.003906 42.082031 34.191406 42.882812 22.960938 C 43.46875 17.464844 41.859375 10.511719 39.109375 2.242188 Z M 9.761719 37.34375 C 9.414062 37.773438 8.882812 38.027344 8.328125 38.027344 C 7.3125 38.027344 6.484375 37.191406 6.484375 36.179688 C 6.484375 35.164062 7.320312 34.332031 8.328125 34.332031 C 8.746094 34.332031 9.164062 34.476562 9.488281 34.746094 C 10.277344 35.382812 10.398438 36.554688 9.761719 37.34375 Z M 39.019531 30.882812 C 33.699219 37.976562 22.335938 35.585938 15.046875 35.925781 C 15.046875 35.925781 13.753906 36.003906 12.457031 36.21875 C 12.457031 36.21875 12.941406 36.011719 13.574219 35.769531 C 18.6875 33.988281 21.109375 33.640625 24.214844 32.046875 C 30.070312 29.070312 35.855469 22.550781 37.058594 15.773438 C 34.828125 22.296875 28.074219 27.898438 21.921875 30.175781 C 17.703125 31.734375 10.085938 33.246094 10.085938 33.246094 L 9.777344 33.082031 C 4.59375 30.558594 4.433594 19.324219 13.859375 15.695312 C 17.988281 14.105469 21.9375 14.976562 26.394531 13.914062 C 31.15625 12.785156 36.660156 9.210938 38.902344 4.554688 C 41.410156 12.003906 44.429688 23.671875 39.019531 30.882812 Z M 39.019531 30.882812 "/>
</g>
</svg>
