<?xml version="1.0" encoding="UTF-8"?>
<svg xmlns="http://www.w3.org/2000/svg" xmlns:xlink="http://www.w3.org/1999/xlink" width="43px" height="200px" viewBox="0 0 43 14" version="1.1">
<defs>
<linearGradient id="linear0" gradientUnits="userSpaceOnUse" x1="26.253" y1="18.725" x2="43.091" y2="18.725" gradientTransform="matrix(0.673981,0,0,-0.633475,0,13.984062)">
<stop offset="0" style="stop-color:rgb(27.058824%,66.27451%,70.196078%);stop-opacity:1;"/>
<stop offset="0.389" style="stop-color:rgb(24.705882%,68.235294%,69.019608%);stop-opacity:1;"/>
<stop offset="1" style="stop-color:rgb(17.254902%,73.333333%,67.058824%);stop-opacity:1;"/>
</linearGradient>
<linearGradient id="linear1" gradientUnits="userSpaceOnUse" x1="20.622" y1="12.025" x2="37.459" y2="12.025" gradientTransform="matrix(0.673981,0,0,-0.633475,0,13.984062)">
<stop offset="0" style="stop-color:rgb(27.058824%,66.27451%,70.196078%);stop-opacity:1;"/>
<stop offset="0.389" style="stop-color:rgb(24.705882%,68.235294%,69.019608%);stop-opacity:1;"/>
<stop offset="1" style="stop-color:rgb(17.254902%,73.333333%,67.058824%);stop-opacity:1;"/>
</linearGradient>
</defs>
<g id="surface1">
<path style=" stroke:none;fill-rule:nonzero;fill:rgb(14.509804%,16.470588%,18.431373%);fill-opacity:1;" d="M 42.863281 10.390625 L 41.855469 10.515625 C 41.855469 10.515625 41.785156 10.136719 41.449219 9.882812 C 41.113281 9.628906 39.96875 9.691406 39.96875 10.324219 C 39.96875 10.894531 40.4375 10.832031 41.382812 11.023438 C 42.257812 11.210938 43 11.464844 43 12.605469 C 43 13.238281 42.527344 14 41.046875 14 C 38.617188 14 38.820312 12.289062 38.820312 12.289062 L 39.898438 12.289062 C 39.898438 12.289062 39.96875 12.859375 40.371094 12.988281 C 40.84375 13.175781 41.652344 13.113281 41.785156 12.734375 C 41.921875 12.351562 41.921875 11.910156 40.640625 11.78125 C 39.359375 11.59375 38.820312 11.085938 38.820312 10.261719 C 38.890625 9.503906 39.359375 8.867188 41.046875 8.867188 C 42.730469 8.933594 42.863281 10.390625 42.863281 10.390625 Z M 38.214844 10.390625 L 37.203125 10.515625 C 37.203125 10.515625 37.136719 10.136719 36.800781 9.882812 C 36.460938 9.628906 35.316406 9.691406 35.316406 10.324219 C 35.316406 10.894531 35.789062 10.832031 36.730469 11.023438 C 37.609375 11.210938 38.347656 11.464844 38.347656 12.605469 C 38.347656 13.238281 37.878906 14 36.394531 14 C 33.96875 14 34.171875 12.289062 34.171875 12.289062 L 35.316406 12.289062 C 35.316406 12.289062 35.382812 12.859375 35.789062 12.988281 C 36.261719 13.175781 37.070312 13.113281 37.203125 12.734375 C 37.339844 12.351562 37.339844 11.910156 36.058594 11.78125 C 34.914062 11.65625 34.304688 11.210938 34.304688 10.515625 L 34.304688 10.261719 C 34.371094 9.503906 34.84375 8.867188 36.460938 8.867188 C 38.011719 8.933594 38.214844 10.390625 38.214844 10.390625 Z M 32.484375 12.164062 L 33.632812 12.164062 L 33.632812 12.226562 C 33.5625 12.605469 33.363281 13.9375 31.40625 13.9375 C 29.65625 13.9375 29.046875 12.667969 29.046875 11.339844 C 29.046875 9.945312 29.925781 8.933594 31.542969 8.933594 C 33.363281 8.933594 33.496094 10.578125 33.496094 10.578125 L 32.417969 10.707031 C 32.417969 10.707031 32.351562 9.820312 31.40625 9.820312 C 30.464844 9.820312 30.128906 10.515625 30.128906 11.339844 C 30.128906 12.164062 30.398438 13.113281 31.339844 13.113281 C 32.285156 13.113281 32.484375 12.164062 32.484375 12.164062 Z M 26.757812 9.058594 L 26.757812 13.875 L 25.8125 13.875 L 25.8125 13.429688 C 25.8125 13.429688 25.476562 14 24.667969 14 C 23.792969 14 23.183594 13.621094 23.117188 12.164062 C 23.117188 10.640625 24.128906 10.261719 24.800781 10.261719 C 25.410156 10.261719 25.8125 10.707031 25.8125 10.707031 L 25.8125 9.058594 Z M 25.8125 12.097656 C 25.8125 11.59375 25.746094 11.023438 24.9375 11.023438 C 24.128906 11.023438 24.128906 11.910156 24.128906 12.164062 C 24.128906 12.480469 24.195312 13.175781 24.9375 13.175781 C 25.679688 13.175781 25.8125 12.605469 25.8125 12.097656 Z M 22.375 11.464844 L 22.375 13.808594 L 21.363281 13.808594 L 21.363281 11.53125 C 21.363281 11.210938 21.164062 10.960938 20.757812 10.960938 C 20.355469 10.960938 19.949219 11.277344 19.949219 11.59375 L 19.949219 13.808594 L 18.9375 13.808594 L 18.9375 10.261719 L 19.949219 10.261719 L 19.949219 10.769531 C 19.949219 10.769531 20.285156 10.136719 21.296875 10.199219 C 22.445312 10.324219 22.375 11.339844 22.375 11.464844 Z M 17.117188 10.324219 L 18.128906 10.324219 L 18.128906 13.875 L 17.117188 13.875 Z M 17.117188 9.058594 L 18.128906 9.058594 L 18.128906 9.882812 L 17.117188 9.882812 Z M 16.714844 10.324219 L 15.636719 13.875 L 14.625 13.875 L 13.953125 11.53125 L 13.277344 13.875 L 12.332031 13.875 L 11.253906 10.324219 L 12.332031 10.324219 L 12.871094 12.605469 L 13.613281 10.324219 L 14.492188 10.324219 L 15.097656 12.667969 L 15.636719 10.324219 Z M 9.773438 8.996094 L 10.785156 8.996094 L 10.785156 13.808594 L 9.773438 13.808594 Z M 7.953125 10.324219 L 8.964844 10.324219 L 8.964844 13.875 L 7.953125 13.875 Z M 7.953125 9.058594 L 8.964844 9.058594 L 8.964844 9.882812 L 7.953125 9.882812 Z M 7.144531 11.59375 L 7.144531 13.808594 L 6.199219 13.808594 L 6.199219 13.367188 C 6.199219 13.367188 5.929688 13.683594 5.527344 13.808594 C 4.921875 14 4.042969 13.875 3.773438 13.238281 C 3.570312 12.734375 3.773438 12.164062 4.3125 11.910156 C 4.988281 11.59375 6.132812 11.65625 6.132812 11.65625 C 6.132812 11.65625 6.199219 11.402344 6.066406 11.210938 C 6 11.023438 5.796875 10.960938 5.527344 10.960938 C 4.851562 10.960938 4.851562 11.402344 4.851562 11.402344 L 3.910156 11.339844 C 3.910156 11.339844 3.910156 10.894531 4.382812 10.578125 C 4.652344 10.390625 4.988281 10.324219 5.59375 10.324219 C 6.335938 10.324219 7.144531 10.578125 7.144531 11.59375 Z M 5.59375 13.175781 C 6.269531 13.050781 6.199219 12.289062 6.199219 12.289062 L 5.929688 12.289062 C 5.730469 12.289062 5.460938 12.289062 5.257812 12.351562 C 4.921875 12.417969 4.785156 12.542969 4.71875 12.667969 C 4.652344 12.859375 4.71875 13.050781 4.921875 13.175781 C 5.054688 13.238281 5.257812 13.238281 5.59375 13.175781 Z M 4.179688 8.996094 L 4.179688 9.945312 L 2.628906 9.945312 L 2.628906 13.875 L 1.484375 13.875 L 1.484375 9.882812 L 0 9.882812 L 0 8.996094 Z M 4.179688 8.996094 "/>
<path style=" stroke:none;fill-rule:nonzero;fill:url(#linear0);" d="M 29.046875 1.457031 C 29.046875 1.457031 28.105469 2.789062 26.488281 2.535156 C 24.871094 2.28125 24.601562 0 21.703125 0 C 18.128906 0 17.726562 2.851562 17.726562 2.851562 C 17.726562 2.851562 18.738281 1.457031 20.285156 1.710938 C 21.835938 1.964844 22.445312 4.246094 25.609375 4.246094 C 28.777344 4.246094 29.046875 1.457031 29.046875 1.457031 Z M 29.046875 1.457031 "/>
<path style=" stroke:none;fill-rule:nonzero;fill:url(#linear1);" d="M 25.273438 5.703125 C 25.273438 5.703125 24.332031 7.03125 22.714844 6.777344 C 21.09375 6.523438 20.824219 4.246094 17.929688 4.246094 C 14.355469 4.246094 13.953125 7.09375 13.953125 7.09375 C 13.953125 7.09375 14.960938 5.703125 16.511719 5.953125 C 17.996094 6.207031 18.667969 8.488281 21.835938 8.488281 C 25.003906 8.488281 25.273438 5.703125 25.273438 5.703125 Z M 25.273438 5.703125 "/>
</g>
</svg>
